<svg height="512" viewBox="0 0 512 512" width="512" xmlns="http://www.w3.org/2000/svg"><style>.st0{display:inline}.st1{fill:none;stroke:#000;stroke-width:16;stroke-linecap:round;stroke-linejoin:round;stroke-miterlimit:10}.st2{display:none}</style><g class="st2" id="layer"><g class="st0"><path class="st1" d="M256 101L105 252l151-151 151 151m-151 8L105 411l151-151 151 151"/></g></g><g id="layer_copy"><path d="M407 260a7.974 7.974 0 0 1-5.657-2.343L256 112.314 110.657 257.657a8.001 8.001 0 0 1-11.314-11.314l151-151a8.002 8.002 0 0 1 11.314 0l151 151A8 8 0 0 1 407 260z"/><path d="M407 419a7.974 7.974 0 0 1-5.657-2.343L256 271.313 110.657 416.657a8.001 8.001 0 0 1-11.314-11.314l151-151a8 8 0 0 1 11.314 0l151 151A8 8 0 0 1 407 419z"/></g></svg>